# xmcd
#
# Track frame offsets:
#	150
#	19009
#	39066
#	55533
#	70485
#	86942
#	101812
#	117961
#	131788
#	151953
#	171442
#	190134
#
# Disc length: 2807 seconds
#
# Revision: 1
# Processed by: cddbd v1.5PL3 Copyright (c) Steve Scherf et al.
# Submitted via: CDex 1.50Beta5
#
DISCID=a00af50c
DTITLE=研ナオコ - 研ナオコ スペシャル・ベスト
DYEAR=1900
DGENRE=Pop
TTITLE0=悲しい女
TTITLE1=泣かせて
TTITLE2=夏をあきらめて
TTITLE3=あばよ
TTITLE4=Tokyo見返り美人
TTITLE5=夏ざかり、ほの字組
TTITLE6=ボサノバ
TTITLE7=窓ガラス
TTITLE8=かもめはかもめ
TTITLE9=六本木レイン
TTITLE10=ひとりぼっちで躍らせて
TTITLE11=話がちがうじゃない
EXTD=
EXTT0=
EXTT1=
EXTT2=
EXTT3=
EXTT4=
EXTT5=
EXTT6=
EXTT7=
EXTT8=
EXTT9=
EXTT10=
EXTT11=
PLAYORDER=
